<svg xmlns="http://www.w3.org/2000/svg" xmlns:xlink="http://www.w3.org/1999/xlink" version="1.1" id="Layer_1" x="0px" y="0px" viewBox="0 0 1920 484" style="enable-background:new 0 0 1920 484;" xml:space="preserve"><script xmlns=""/>
<style type="text/css">
	.st0{fill:#2BDB19;}
</style>
<g>
	<path fill="#fff" d="M181.5,347.3c-15.4,0-29.3-3.6-41.7-10.7c-12.3-7.1-22.1-16.8-29.4-29.2c-7.2-12.3-10.9-26.2-11.1-41.8V125.4   c0-3.6,1-6.4,3.1-8.5c2.1-2.1,4.9-3.1,8.5-3.1c3.4,0,6,1,8.2,3.1c2.1,2.1,3.1,4.9,3.1,8.5v87.3c6.6-9.3,15.2-16.7,26-22.4   c10.8-5.6,22.8-8.5,36-8.5c15.2,0,28.9,3.6,40.9,10.8c12.1,7.2,21.6,17.1,28.7,29.6c7.1,12.5,10.5,26.5,10.5,42.2   s-3.6,30-10.8,42.5c-7.2,12.5-17.1,22.3-29.5,29.6C211.4,343.7,197.2,347.3,181.5,347.3L181.5,347.3z M181.5,326.5   c11.5,0,21.7-2.7,30.9-8.2c9.1-5.4,16.3-12.8,21.5-22.1s7.9-19.9,7.9-31.8c0-11.9-2.6-22.2-7.9-31.6c-5.3-9.4-12.4-16.7-21.5-22.1   s-19.4-8-30.9-8s-21.5,2.7-30.5,8c-9.1,5.4-16.2,12.7-21.4,22.1s-7.7,19.9-7.7,31.6c0,11.7,2.6,22.4,7.7,31.8   c5.2,9.3,12.3,16.7,21.4,22.1C160.1,323.8,170.3,326.5,181.5,326.5z"/>
	<path fill="#fff" d="M325.1,152.5c-4.3,0-8.1-1.5-11.3-4.7c-3.1-3.2-4.7-7-4.7-11.6c0-5,1.6-8.9,4.9-11.7c3.3-2.8,7.1-4.3,11.4-4.3   s7.8,1.4,11.1,4.3c3.3,2.8,4.9,6.8,4.9,11.7c0,4.5-1.6,8.4-4.7,11.6C333.7,150.9,329.8,152.5,325.1,152.5L325.1,152.5z    M325.5,345.8c-3.6,0-6.4-1-8.5-3.1s-3.1-4.9-3.1-8.5V195c0-3.6,1-6.4,3.1-8.5s4.9-3.1,8.5-3.1c3.4,0,6,1,8.2,3.1   c2.1,2.1,3.1,4.9,3.1,8.5v139.2c0,3.6-1,6.4-3.1,8.5C331.5,344.8,328.8,345.8,325.5,345.8z"/>
	<path fill="#fff" d="M474.3,326.3c-2-2.2-4.5-3.3-7.7-3.3h-8c-9.4,0-16.9-3.2-22.9-9.7s-8.9-14.7-8.9-24.8v-79.3h33.4c3,0,5.4-0.9,7.4-2.8   c1.9-1.9,2.9-4.2,2.9-7c0-2.9-0.9-5.3-2.9-7.2c-2-1.8-4.5-2.8-7.4-2.8h-33.4v-46.1c0-3.3-1.1-6.1-3.3-8.3s-4.9-3.3-8.3-3.3   s-6.1,1.1-8.2,3.3c-2.1,2.2-3.1,4.9-3.1,8.3v46.1h-19.4c-3,0-5.4,0.9-7.4,2.8c-1.9,1.8-2.9,4.3-2.9,7.2c0,2.8,0.9,5.1,2.9,7   s4.5,2.8,7.4,2.8h19.4v79.1c0,11.1,2.4,21,7.1,29.6c4.7,8.7,11.2,15.4,19.4,20.4c8.1,4.9,17.5,7.4,28,7.4l6.3,0.2   c3.5,0,6.5-1,8.9-3.1c2.4-2.2,3.6-4.9,3.6-8.2S476.3,328.5,474.3,326.3z"/>
	<path class="st0" d="M613,117.4c-2.3-1.9-5-2.9-8.3-2.9c-13.4,0-24.7,2.9-33.9,8.7c-9.2,5.7-16.2,13.9-20.9,24.3   c-4.7,10.5-7.1,22.6-7.1,36.3v5.6h-18.9c-3.2,0-5.6,1-7.5,2.8s-2.8,4.3-2.8,7.2c0,2.7,0.9,5,2.8,6.9c1.9,1.9,4.3,2.8,7.5,2.8h18.9   v124.2c0,3.5,1,6.4,3.2,8.4c2.2,2.1,4.8,3.1,7.7,3.1v-0.4c3.7,0,6.6-1,8.7-3s3.1-4.8,3.1-8.4V209.1h35.3c3.1,0,5.6-0.9,7.5-2.8   c1.9-1.8,2.8-4.2,2.8-6.9c0-2.9-0.9-5.3-2.8-7.2c-1.9-1.9-4.4-2.8-7.5-2.8h-35.3v-7.1c0-9.2,1.5-17.4,4.3-24.6   c2.9-7.2,7.2-12.8,13-16.8c5.7-4,13-6,21.9-6c3.3,0,6.1-0.9,8.3-2.9c2.1-1.9,3.2-4.4,3.2-7.3C616.2,121.8,615.2,119.4,613,117.4z"/>
	<path class="st0" d="M735.2,185.4c-4.9-2.5-11.9-3.8-20.9-3.8c-11.4,0-21.8,2.8-31.1,8.3c-7.6,4.5-14,10.4-19.3,17.6v-12.9   c0-3.6-1-6.3-2.9-8.3c-2-1.9-4.7-2.9-8.3-2.9s-6.3,0.9-8.3,2.9c-1.9,2-2.9,4.7-2.9,8.3v139c0,3.6,0.9,6.3,2.9,8.3   c2,1.9,4.7,2.9,8.3,2.9c3.5,0,6.3-1,8.3-2.9c1.9-2,2.9-4.7,2.9-8.3v-88.3c0-9.2,2.5-17.2,7.5-23.9s11.7-11.7,20.3-14.9   c8.5-3.2,18.3-4.4,29.3-3.4c3.4,0.2,6.4,0.4,9,0.6c2.7,0.2,4.9-0.3,6.8-1.2c1.9-0.9,3.2-3,4-5.9C742,191.7,740.1,188,735.2,185.4z"/>
	<path class="st0" d="M898.3,220.4c-6.1-12-14.7-21.4-25.8-28.2c-11.1-6.7-24-10.1-39.1-10.1c-15.2,0-28.5,3.5-40.1,10.6   c-11.6,7-20.7,16.7-27.3,29s-9.9,26.6-9.9,42.6s3.5,30.1,10.5,42.5s16.6,22,28.9,29s26.3,10.5,42.3,10.5c9.2-0.1,18.9-1.9,29-5.5   c9.9-3.6,18.2-8.2,24.7-13.7c2.4-2,3.5-4.4,3.4-7.1s-1.4-5.3-4-7.7c-2-1.6-4.4-2.3-7.1-2.2s-5.1,1-7.3,2.8   c-4.2,3.8-10,6.8-17.2,9.3s-14.3,3.7-21.4,3.7c-11.8,0-22.2-2.7-31.2-8c-9.1-5.3-16.2-12.6-21.4-21.8c-4.1-7.2-6.6-15.4-7.4-24.4   h118.9c3.2,0,5.7-0.9,7.7-2.8c1.9-1.9,2.9-4.3,2.9-7.5C907.4,246.1,904.3,232.4,898.3,220.4z M784.4,232.3   c4.6-9.4,11.2-16.7,19.6-22c8.5-5.4,18.5-8,29.5-8s20.5,2.6,28.4,7.7c7.9,5.1,14.1,12.2,18.4,21.2c3.1,6.5,5.1,13.8,5.8,21.6H778.3   C779.3,245.4,781.3,238.5,784.4,232.3z"/>
	<path class="st0" d="M961.5,152.8c-4.3,0-8.1-1.6-11.2-4.7c-3.1-3.2-4.7-7-4.7-11.5c0-4.9,1.6-8.8,4.9-11.7c3.2-2.8,7-4.3,11.3-4.3   s7.8,1.4,11,4.3c3.2,2.8,4.9,6.7,4.9,11.7c0,4.5-1.5,8.4-4.7,11.5C969.9,151.2,966.1,152.8,961.5,152.8L961.5,152.8z M961.8,344.8   c-3.6,0-6.3-1-8.4-3.1c-2-2-3.1-4.9-3.1-8.4V194.9c0-3.6,1-6.4,3.1-8.4c2-2,4.9-3.1,8.4-3.1c3.3,0,6,1,8.1,3.1c2,2,3.1,4.9,3.1,8.4   v138.4c0,3.6-1,6.4-3.1,8.4C967.8,343.8,965.1,344.8,961.8,344.8z"/>
	<path class="st0" d="M1186.2,264.3c-0.1-16-3.7-30.3-10.7-42.7s-16.6-22-28.9-29s-26.6-10.5-42.3-10.5s-29.7,3.5-42.1,10.5   c-12.4,6.9-22.1,16.6-29.2,29c-7,12.3-10.6,26.7-10.6,42.7s3.3,30.1,10.1,42.5c6.7,12.4,16.2,22,28.1,29s25.7,10.5,41.2,10.5   c13.7-0.1,25.9-3.3,36.8-9.6c10.6-6.2,18.9-15,25-26.1v13c0,13-2.6,24.3-7.8,33.9c-5.2,9.6-12.2,17.1-21.1,22.4   c-8.9,5.4-18.8,8-29.8,8c-11.8,0-22.1-2.2-31.1-6.5c-8.9-4.4-16.2-10.1-21.9-17.2c-1.7-2.4-4.2-3.8-7.3-4.4c-3.1-0.6-5.9,0-8.5,1.8   s-4,4.1-4.3,6.8s0.6,5.3,2.8,7.7c7.7,10,17.4,17.9,29.2,23.7c11.7,5.8,25.4,8.7,40.9,8.7c15.7,0,29.6-3.7,41.7-11.2   c12.2-7.4,21.8-17.4,28.9-30.1c7-12.7,10.6-26.9,10.6-42.9v-59.8L1186.2,264.3z M1135,317.7c-9,5.3-19.2,7.9-30.8,7.9   c-11.7,0-22-2.6-31-7.9c-9-5.2-16.1-12.5-21.2-21.7s-7.7-19.9-7.7-31.8s2.6-22.6,7.7-32c5.1-9.3,12.2-16.6,21.2-21.8   c9.1-5.3,19.4-7.9,31-7.9s21.8,2.7,30.8,7.9c9,5.2,16,12.5,21.1,21.8s7.7,20.1,7.7,32s-2.6,22.6-7.7,31.8S1144,312.5,1135,317.7z"/>
	<path class="st0" d="M1370,215.8c-6.4-11.2-15.1-19.7-26.1-25.5s-23.5-8.7-37.4-8.7c-12.8,0-24.4,2.8-34.8,8.4   c-7.2,3.9-13.5,8.9-18.8,14.9v-10v-69c0-3.5-1-6.4-3.1-8.4c-2.1-2.1-4.6-3.1-8.1-3.1s-6.4,1.1-8.4,3.1c-2.1,2-3.1,4.8-3.1,8.4v69   v72.6v66.1c0,3.3,1.1,6.1,3.1,8.1c2.1,2.1,4.8,3.1,8.4,3.1c3.4,0,6.1-1.1,8.1-3.1c2.1-2.1,3.1-4.8,3.1-8.1v-66.1v-21.3h0.1   c0-8.3,2.3-15.6,6.8-22.1c4.5-6.4,10.6-11.5,18.4-15.3c7.8-3.7,16-5.6,26.1-5.6s19,2,27,5.9c7.9,4,14.2,9.8,18.8,17.7   s6.9,17.9,6.9,30.1v76.7c0,3.1,1,5.9,3.2,8s5,3.2,8.3,3.2c3,0,5.7-1.1,7.9-3.3c2.1-2.2,3.2-4.8,3.2-8v-76.7   C1379.6,240.6,1376.4,227.1,1370,215.8z"/>
	<path class="st0" d="M1508.7,325.3c-2-2.1-4.6-3.2-7.7-3.2h-8c-9.2,0-16.7-3.2-22.7-9.6s-8.9-14.6-8.9-24.6v-78.8h33.2   c2.9,0,5.3-0.9,7.3-2.8c1.9-1.8,2.9-4.2,2.9-6.9c0-2.9-0.9-5.3-2.9-7.2c-1.9-1.9-4.4-2.8-7.3-2.8h-33.2v-45.7c0-3.3-1-6.1-3.2-8.3   c-2.3-2.1-5-3.2-8.3-3.2s-6.1,1-8.1,3.2c-2.1,2.3-3.1,5-3.1,8.3v45.7h-19.2c-2.9,0-5.3,0.9-7.3,2.8c-1.9,1.8-2.9,4.3-2.9,7.2   c0,2.7,0.9,5,2.9,6.9c1.9,1.9,4.4,2.8,7.3,2.8h19.2V288c0,11,2.4,20.8,7.1,29.3s11.1,15.3,19.3,20.2c8.1,4.8,17.4,7.3,27.8,7.3h6.2   c3.6,0,6.5-1,8.9-3.1s3.6-4.8,3.6-8.1S1510.7,327.5,1508.7,325.3z"/>
	<path class="st0" d="M1681.8,220.4c-6.1-12-14.7-21.4-25.8-28.2c-11.1-6.7-24-10.1-39.1-10.1c-15.2,0-28.5,3.5-40.1,10.6   c-11.6,7-20.7,16.7-27.3,29s-9.9,26.6-9.9,42.6s3.5,30.1,10.5,42.5s16.6,22,28.9,29s26.3,10.5,42.3,10.5c9.3-0.1,19-1.9,29.1-5.5   c9.9-3.6,18.2-8.2,24.7-13.7c2.4-2,3.5-4.4,3.4-7.1s-1.4-5.3-4-7.7c-2-1.6-4.4-2.3-7.1-2.2s-5.1,1-7.3,2.8   c-4.2,3.8-10,6.8-17.2,9.3c-7.3,2.5-14.3,3.7-21.4,3.7c-11.8,0-22.2-2.7-31.2-8c-9.1-5.3-16.2-12.6-21.4-21.8   c-4.1-7.2-6.6-15.4-7.4-24.4h118.8c3.2,0,5.7-0.9,7.7-2.8c1.9-1.9,2.9-4.3,2.9-7.5C1690.9,246.1,1687.8,232.4,1681.8,220.4z    M1568,232.3c4.6-9.4,11.2-16.7,19.6-22c8.5-5.4,18.5-8,29.5-8s20.5,2.6,28.4,7.7c7.9,5.1,14.1,12.2,18.4,21.2   c3.1,6.5,5.1,13.8,5.8,21.6h-107.8C1562.9,245.4,1564.9,238.5,1568,232.3z"/>
	<path class="st0" d="M1823,185.4c-4.9-2.5-11.9-3.8-20.9-3.8c-11.4,0-21.8,2.8-31.1,8.3c-7.6,4.5-14.1,10.5-19.4,17.8v-13.1   c0-3.6-1-6.3-2.9-8.3c-2-1.9-4.7-2.9-8.3-2.9s-6.3,0.9-8.3,2.9c-1.9,2-2.9,4.7-2.9,8.3v139c0,3.6,0.9,6.3,2.9,8.3   c2,1.9,4.7,2.9,8.3,2.9s6.3-1,8.3-2.9c1.9-2,2.9-4.7,2.9-8.3v-88.3h0.1c0-9.2,2.5-17.2,7.5-23.9s11.7-11.7,20.3-14.9   c8.5-3.2,18.3-4.4,29.3-3.4c3.4,0.2,6.4,0.4,9,0.6c2.7,0.2,4.9-0.3,6.8-1.2c1.9-0.9,3.2-3,4-5.9   C1829.8,191.7,1827.9,188,1823,185.4z"/>
	<g>
		<g>
			<path fill="#fff" d="M1912,46.1v391.8c0,12.5-10.2,22.7-22.7,22.7H491.5v-23.1h1397.4V46.6H491.5V23.5h1397.8     C1901.8,23.4,1912,33.6,1912,46.1z"/>
		</g>
	</g>
	<g>
		<g>
			<g>
				<path class="st0" d="M31.1,46.6v390.9h460.4v23.1H30.7C18.2,460.6,8,450.4,8,437.9V46.1c0-12.6,10.2-22.7,22.7-22.7h460.8v23.1      L31.1,46.6L31.1,46.6z"/>
			</g>
		</g>
	</g>
</g>
</svg>
