<svg width="46.401" height="62.7" viewBox="0 0 46.401 62.7" xmlns="http://www.w3.org/2000/svg">
  <g id="svgGroup" font-size="9pt">
    <path d="M 44.601 17.7 L 46.401 19.5 Q 44.801 24.1 41.451 27.9 A 41.999 41.999 0 0 1 34.807 34.014 A 38.916 38.916 0 0 1 34.201 34.45 A 57.022 57.022 0 0 1 30.96 36.583 Q 29.402 37.529 27.954 38.247 A 31.444 31.444 0 0 1 27.001 38.7 A 106.131 106.131 0 0 1 23.45 46.501 A 88.011 88.011 0 0 1 21.151 50.75 A 46.08 46.08 0 0 1 18.422 54.957 Q 16.923 56.999 15.342 58.593 A 25.669 25.669 0 0 1 14.451 59.45 Q 10.901 62.7 6.801 62.7 Q 4.301 62.7 2.151 61.2 Q 0.098 59.768 0.005 56.604 A 10.354 10.354 0 0 1 0.001 56.3 Q 0.001 53.1 1.851 50.55 A 18.666 18.666 0 0 1 4.47 47.663 A 24.266 24.266 0 0 1 6.751 45.85 Q 9.801 43.7 13.301 41.9 Q 16.801 40.1 20.101 38.5 A 78.423 78.423 0 0 0 21.566 34.599 A 92.543 92.543 0 0 0 22.201 32.7 A 96.786 96.786 0 0 0 23.411 28.63 A 117.568 117.568 0 0 0 24.101 26 A 45.501 45.501 0 0 1 20.059 30.469 A 36.101 36.101 0 0 1 16.751 33.3 A 15.923 15.923 0 0 1 13.598 35.178 A 11.56 11.56 0 0 1 8.901 36.2 A 9.227 9.227 0 0 1 6.027 35.773 A 7.507 7.507 0 0 1 2.551 33.4 A 9.678 9.678 0 0 1 0.574 29.38 Q 0.224 27.93 0.202 26.228 A 17.749 17.749 0 0 1 0.201 26 Q 0.201 20.7 2.851 16.05 Q 5.501 11.4 9.701 7.75 A 34.565 34.565 0 0 1 17.362 2.658 A 32.045 32.045 0 0 1 18.701 2.05 A 26.868 26.868 0 0 1 23.383 0.517 A 20.664 20.664 0 0 1 27.901 0 A 14.367 14.367 0 0 1 29.574 0.091 Q 31.551 0.324 32.701 1.15 A 5.005 5.005 0 0 1 33.51 1.864 Q 33.961 2.367 34.154 2.926 A 2.65 2.65 0 0 1 34.301 3.8 A 3.329 3.329 0 0 1 34.21 4.598 A 2.305 2.305 0 0 1 33.601 5.7 Q 32.901 6.4 32.701 6.5 Q 31.896 5.615 31.059 5.215 A 3.565 3.565 0 0 0 30.651 5.05 Q 29.601 4.7 28.201 4.7 A 13.955 13.955 0 0 0 21.492 6.445 A 16.926 16.926 0 0 0 20.701 6.9 Q 17.101 9.1 14.351 12.55 A 32.846 32.846 0 0 0 10.991 17.639 A 28.898 28.898 0 0 0 10.001 19.7 A 22.663 22.663 0 0 0 8.995 22.484 Q 8.577 23.952 8.453 25.292 A 12.022 12.022 0 0 0 8.401 26.4 Q 8.401 27.745 8.807 28.66 A 3.206 3.206 0 0 0 9.301 29.45 Q 10.201 30.5 11.501 30.5 Q 13.882 30.5 17.131 27.86 A 26.98 26.98 0 0 0 18.301 26.85 A 49.717 49.717 0 0 0 22.706 22.253 A 63.743 63.743 0 0 0 26.001 18 Q 26.201 17.2 26.351 16.55 Q 26.501 15.9 26.601 15.3 A 30.514 30.514 0 0 1 27.23 13.11 Q 28.016 10.736 29.001 9.4 Q 30.401 7.5 32.901 7.5 A 6.473 6.473 0 0 1 33.292 7.513 Q 33.481 7.525 33.696 7.546 A 14.604 14.604 0 0 1 34.151 7.6 Q 34.901 7.7 35.801 7.9 Q 35.801 9.685 34.817 13.733 A 83.354 83.354 0 0 1 34.801 13.8 A 119.61 119.61 0 0 1 33.952 17.065 Q 33.163 19.944 32.101 23.35 A 230.136 230.136 0 0 1 28.819 33.079 A 252.512 252.512 0 0 1 28.301 34.5 A 27.731 27.731 0 0 0 31.82 32.705 A 35.696 35.696 0 0 0 34.601 30.85 Q 37.801 28.5 40.501 25.15 Q 43.201 21.8 44.601 17.7 Z M 6.401 58.1 A 2.799 2.799 0 0 0 7.503 57.839 Q 8.926 57.222 10.927 55.149 A 30.148 30.148 0 0 0 11.351 54.7 A 21.931 21.931 0 0 0 13.269 52.267 Q 15.08 49.646 17.055 45.621 A 96.716 96.716 0 0 0 18.201 43.2 A 85.719 85.719 0 0 0 13.81 45.489 A 71.163 71.163 0 0 0 11.401 46.9 A 28.058 28.058 0 0 0 8.918 48.601 Q 7.741 49.509 6.815 50.459 A 16.255 16.255 0 0 0 6.401 50.9 Q 4.501 53 4.501 55.3 A 4.972 4.972 0 0 0 4.563 56.111 Q 4.635 56.548 4.792 56.901 A 2.419 2.419 0 0 0 5.051 57.35 A 2.123 2.123 0 0 0 5.453 57.773 A 1.5 1.5 0 0 0 6.401 58.1 Z" vector-effect="non-scaling-stroke"/>
  </g>
  <style>
    path { fill: #0d9288; }
    @media (prefers-color-scheme: dark) {
        path { fill: #99f6e4; }
    }
  </style>
</svg>
