<svg xmlns="http://www.w3.org/2000/svg" width="204" height="49" viewBox="0 0 204 49" fill="none"><script xmlns=""/>
<g clip-path="url(#clip0_4977_1631)">
<mask id="mask0_4977_1631" style="mask-type:luminance" maskUnits="userSpaceOnUse" x="0" y="1" width="205" height="47">
<path d="M204.45 1H0V47.3132H204.45V1Z" fill="white"/>
</mask>
<g mask="url(#mask0_4977_1631)">
<path d="M23.7411 40.6667C22.0239 44.5361 15.2998 49.5375 10.2356 45.736C4.34147 41.3117 5.72127 29.6286 6.68864 24.6791C5.16635 24.5891 3.20915 24.4766 1.54438 24.3866C0.790213 24.3459 0.223942 23.8018 0.157065 22.9993C0.0712571 21.8838 0.637005 21.3646 1.34191 21.3646C3.00667 21.3646 6.80862 21.4171 7.40102 21.4171C11.5854 2.87223 17.8531 2.84535 20.1791 6.6217C22.7288 10.7611 21.469 15.5604 17.6595 21.5539C19.9242 21.5539 21.469 21.6486 23.8836 21.6486C25.2933 21.6486 25.5633 22.8043 25.4884 23.6592C25.414 24.5059 25.1884 25.624 23.8836 25.624L15.228 25.1422C14.366 26.3312 13.0702 27.8437 11.8833 29.7634C10.4066 32.1518 10.5697 38.8365 12.5753 41.3117C14.917 44.2019 22.3838 41.4166 23.3587 35.5075L23.7411 40.6667ZM17.3446 10.1462C16.1162 8.20223 14.0151 11.9309 11.9679 21.5032C12.3728 21.5032 13.0365 21.5295 13.4939 21.5295C15.0949 18.7699 18.8893 12.5908 17.3446 10.1462Z" fill="#fff"/>
<path d="M32.1164 47.0553C28.2237 47.0553 24.963 44.7044 23.7614 40.9489C22.543 36.9233 23.3905 32.3047 25.6073 28.7834C27.8716 25.1206 33.6601 22.2745 37.2996 25.9905C42.6086 31.4108 34.7481 38.4396 29.5127 39.884C32.1164 46.0655 40.9221 40.3058 42.9887 34.7871L43.1538 40.0963C40.4861 43.1674 37.7558 47.0553 32.1164 47.0553ZM28.9683 35.9313C32.1968 35.9313 37.0196 30.2746 34.14 28.7834C31.2604 27.2923 28.9683 33.0299 28.9683 35.9313Z" fill="#fff"/>
<path d="M52.1389 24.3856C54.4524 24.9148 52.7689 28.4275 51.2391 30.7971C51.749 33.4967 54.3824 36.8738 54.5312 41.6555C57.9732 41.3107 62.0675 39.3759 63.3199 35.5064L64.0323 39.8834C61.1902 44.5351 54.0512 47.0547 46.5898 47.0547C42.4103 47.0547 41.4646 44.2992 40.8047 42.7995C41.3705 39.552 41.6705 38.3111 42.9903 34.7865C45.1598 29.7514 48.9594 23.6582 52.1389 24.3856ZM46.3198 43.6504C50.3992 44.0103 50.2492 39.552 47.6396 35.3565C46.7529 36.8207 43.6166 40.0036 42.8067 40.9484C43.3615 40.7984 44.7946 43.5157 46.3198 43.6504Z" fill="#fff"/>
<path d="M80.3739 40.6667C78.6567 44.5361 71.9326 49.5375 66.8684 45.736C60.9744 41.3117 62.3542 29.6286 63.3215 24.6791C61.7992 24.5891 59.842 24.4766 58.1771 24.3866C57.4229 24.3459 56.8568 23.8018 56.7899 22.9993C56.704 21.8838 57.2698 21.3646 57.9748 21.3646C59.6395 21.3646 63.4415 21.4171 64.0339 21.4171C68.2182 2.87223 74.4859 2.84535 76.8121 6.6217C79.3617 10.7611 78.1019 15.5604 74.2924 21.5539C76.557 21.5539 78.1019 21.6486 80.5164 21.6486C81.9262 21.6486 82.1962 22.8043 82.1213 23.6592C82.0469 24.5059 81.8213 25.624 80.5164 25.624L71.8609 25.1422C70.9987 26.3312 69.7031 27.8437 68.516 29.7634C67.0393 32.1518 67.2024 38.8365 69.2081 41.3117C71.5499 44.2019 79.0166 41.4166 79.9916 35.5075L80.3739 40.6667ZM73.9774 10.1462C72.749 8.20223 70.6479 11.9309 68.6007 21.5032C69.0055 21.5032 69.6693 21.5295 70.1267 21.5295C71.7277 18.7699 75.5223 12.5908 73.9774 10.1462Z" fill="#fff"/>
<path d="M191.695 47.0553C187.802 47.0553 184.541 44.7044 183.339 40.9489C182.121 36.923 182.969 32.3044 185.186 28.7834C187.45 25.1206 193.238 22.2745 196.878 25.9905C202.187 31.4108 194.326 38.4396 189.091 39.8837C191.695 46.0655 200.501 40.3056 202.567 34.7871C203.553 32.1533 205.828 34.3372 202.732 40.0963C201.685 42.0434 197.334 47.0553 191.695 47.0553ZM188.547 35.9313C191.775 35.9313 196.598 30.2746 193.718 28.7834C190.839 27.2923 188.547 33.0299 188.547 35.9313Z" fill="#fff"/>
<path d="M91.4356 30.4077C84.6566 31.5476 83.2468 40.6511 85.4665 42.8708C87.9562 45.3604 92.1555 42.346 92.6204 40.3212C91.9904 37.9066 91.4356 33.9021 91.4356 30.4077ZM107.68 42.4163C106.838 43.2607 101.93 47.0315 98.7095 47.0315C96.4531 47.0315 94.6452 45.2093 93.7338 43.2607C90.3856 47.6401 84.9108 48.6602 80.9969 43.8906C76.7234 38.6832 81.5071 26.6883 91.488 25.6833C91.9904 9.14082 99.7893 -0.907699 105.039 2.3318C110.476 5.68736 105.848 18.0195 100.959 27.7081C99.1589 31.2755 95.7099 39.8264 100.179 41.4696C102.223 42.2207 106.178 36.7267 106.838 35.567L107.68 42.4163ZM102.294 7.28111C99.2093 5.54941 97.2248 19.4593 97.2248 29.1928C102.294 17.8995 104.002 8.23975 102.294 7.28111Z" fill="#fff"/>
<path d="M120.887 29.3271C124.123 35.7992 121.113 47.0547 112.651 47.0547C99.49 47.0547 104.264 24.333 116.154 24.333C117.652 24.333 119.057 24.5697 120.366 25.043C124.349 26.4345 127.189 26.3006 129.331 24.7246L130.343 26.8377C128.532 30.0371 121.952 29.824 120.887 29.3271ZM113.574 42.5103C118.103 42.5103 120.3 28.8774 114.946 28.8774C109.797 28.8774 107.441 42.5103 113.574 42.5103Z" fill="#fff"/>
<path d="M143.542 25.8722C143.717 29.1928 139.095 39.1264 142.075 41.5642C144.625 43.6512 150.24 37.995 151.542 36.3099C151.542 38.0458 151.542 37.8803 151.542 39.6164C148.711 42.4478 144.495 47.0553 140.438 47.0553C138.047 47.0553 136.936 44.4176 136.786 43.4578C134.969 45.8296 131.981 47.1026 128.797 47.1026C121.758 47.0553 127.345 29.846 128.267 26.3584C128.797 24.3573 130.256 24.3731 130.761 24.3573C131.518 24.3336 133.607 23.8366 133.607 25.8722C133.607 27.9076 127.535 41.73 132.181 41.73C135.946 41.73 137.94 29.069 138.646 25.6833C138.872 24.5961 140.031 24.3573 140.915 24.3573C141.846 24.3573 143.476 24.6281 143.542 25.8722Z" fill="#fff"/>
<path d="M160.534 42.416C163.635 42.7237 170.744 37.4065 172.835 35.3155L173.262 38.0374C165.934 47.1023 155.015 50.1746 147.965 42.9756C145.975 32.2065 152.901 -5.47529 163.818 2.22704C171.534 7.67075 160.978 23.0273 157.096 27.7417C163.818 20.8067 170.459 32.3097 160.534 42.416ZM159.605 29.7298C152.515 30.407 151.926 36.6103 151.585 40.5935C157.118 46.2502 165.229 29.1925 159.605 29.7298ZM160.717 6.15599C156.049 6.15599 152.177 26.0941 152.645 29.3274C154.893 27.3155 165.432 6.15599 160.717 6.15599Z" fill="#fff"/>
<path d="M173.673 46.3951C163.214 40.3628 171.883 -5.52871 185.523 3.44134C192.667 8.13968 172.313 39.4111 176.613 42.6756C178.555 44.1502 184.02 39.3461 185.191 35.5667L185.523 40.5934C184.923 42.002 178.933 49.4285 173.673 46.3951ZM174.153 30.4074C176.313 26.8979 185.523 7.28078 182.701 6.15592C179.257 4.78329 171.633 22.8185 174.153 30.4074Z" fill="#fff"/>
<path d="M200.56 7.68628L198.227 2.41797H199.171L200.803 6.2833L202.436 2.41797H203.38L201.047 7.68628H200.56ZM198.055 7.68628V2.41797H198.971V7.68628H198.055ZM202.636 7.68628V2.41797H203.552V7.68628H202.636ZM194.619 7.68628V2.87608H195.535V7.68628H194.619ZM193.016 3.21967V2.41797H197.139V3.21967H193.016Z" fill="#fff"/>
</g>
</g>
<defs>
<clipPath id="clip0_4977_1631">
<rect width="204" height="49" fill="white"/>
</clipPath>
</defs>
<script xmlns=""/></svg>
